<svg xmlns="http://www.w3.org/2000/svg" viewBox="0 0 168.96 165.84"><defs><style>.cls-1{isolation:isolate;}.cls-2{fill:#ff3;}.cls-3{fill:#39393a;fill-rule:evenodd;}</style></defs><title>Ресурс 12</title><g id="Слой_2" data-name="Слой 2"><g id="Прямоугольник_1_копия" data-name="Прямоугольник 1 копия" class="cls-1"><g id="Прямоугольник_1_копия-2" data-name="Прямоугольник 1 копия"><path class="cls-2" d="M102.5,64.89v96H5V64.89h97.5m5-5H0v106H107.5V59.89Z"/></g></g><g id="Прямоугольник_1_копия_2" data-name="Прямоугольник 1 копия 2" class="cls-1"><g id="Прямоугольник_1_копия_2-2" data-name="Прямоугольник 1 копия 2"><path class="cls-2" d="M164,5v96H66.46V5H164m5-5H61.46V106H169V0Z"/></g></g><g id="eto" class="cls-1"><g id="eto-2" data-name="eto"><path class="cls-3" d="M29.08,34.56c-1.82,0-2.69-1.13-2.82-3.49H37.58c0-3.15.47-10.09-8.3-10.09-7.47,0-8.86,4.62-8.86,8.77s1.29,8.83,8.9,8.83c5.8,0,8.19-2.56,8.39-5.95l-6.14,0C31.47,33.73,30.78,34.56,29.08,34.56ZM29,24.93c1.79,0,2.42.8,2.62,3H26.26C26.46,25.63,27.29,24.93,29,24.93Zm57,8.73c-.49,0-.89-.16-.89-1V26.29H90.9v-5h-6V17H78.72v4.31l-2.79,1.33v3.65h2.79v6.84c0,3.12,1.89,5.45,6.67,5.45,5.15,0,7-2.49,7-6.31H86.85C86.85,33.5,86.52,33.66,86,33.66ZM139.9,21c-7,0-8.53,4.72-8.53,8.83s1.5,8.77,8.47,8.77,8.53-4.58,8.53-8.77S146.77,21,139.9,21Zm-.06,12.65c-1.86,0-2.76-1.13-2.76-3.82S137.94,26,139.9,26s2.76,1.23,2.76,3.85S141.79,33.63,139.84,33.63Z"/></g></g><g id="gri" class="cls-1"><g id="gri-2" data-name="gri"><path class="cls-3" d="M35.3,90.08c-1.43-.63-3.92-.93-7.27-1.23-1.23-.1-1.7-.3-1.7-.73s.47-.7,1.23-.7c7.64,0,9.36-2,9.36-5.17a3.6,3.6,0,0,0-2.09-3.39l2.62-.5.07-3.22h-7.9c-7.37,0-8.93,3.29-8.93,6.64,0,1,.56,3.69,2.79,4.35-1.89.3-3.16,1.26-3.16,2.76,0,4.48,11.16,2.19,11.16,4.54,0,.77-.47,1.46-2.33,1.46-2.65,0-2.92-1.19-2.92-1.89H20.16c0,4,2,6.18,9,6.18s8.5-2.69,8.5-5.48A3.46,3.46,0,0,0,35.3,90.08ZM28.72,79.56c1.66,0,2,.66,2,2,0,1.63-.4,2.3-2,2.3s-1.92-.7-1.92-2.3C26.8,80.22,27.13,79.56,28.72,79.56ZM84.41,77.2l-1-2.06H79.89V92.07h6.25V82.71c0-2.16.49-2.82,4.18-2.42V74.84C87,74.64,85.47,75.81,84.41,77.2Zm52.37,14.87h6.28V75.14h-6.28Zm3.12-24.9c-2.22,0-3.85.3-3.85,3.12s1.63,3.16,3.85,3.16,3.85-.43,3.85-3.16S142.16,67.17,139.9,67.17Z"/></g></g><g id="sha" class="cls-1"><g id="sha-2" data-name="sha"><path class="cls-3" d="M27.07,136.19c0-.8.5-1.33,2-1.33s2,.87,2,2.53H36.9c0-4.35-2-6.14-7.9-6.14s-8,2.45-8,5.24c0,6.14,10.22,4,10.22,7.2,0,1-.73,1.46-2,1.46-1.76,0-2.39-1-2.39-2.78H20.73c0,4.58,2.86,6.47,8.53,6.47s8.07-2.86,8.07-5.21C37.33,137.05,27.07,139.25,27.07,136.19Zm59.42-4.94a5.82,5.82,0,0,0-4,1.66V125H76.3v23.47h6.18l.06-9.33c0-2.39.57-2.89,2.1-2.89s2,.5,2,2.89v9.33h6.2v-9.6C92.83,134.6,92.5,131.25,86.49,131.25Zm53.32,0c-6.4,0-8.1,3.08-8.1,6.27h6.14c0-1.59.47-2.46,2.13-2.46s2.19.77,2.19,3.12c-7.9.53-11,1.93-11,5.71,0,3.46,3,5,6.64,5,2.79,0,4.68-.86,6-2.66l1.1,2.33h3.45V139C148.41,134.83,147.25,131.25,139.81,131.25Zm-.2,13.64c-1.46,0-2.05-.6-2.05-1.66,0-.76.49-1.59,2.05-1.83l2.53-.26C142.14,143.69,141,144.89,139.61,144.89Z"/></g></g></g></svg>